<svg xmlns="http://www.w3.org/2000/svg">

  <symbol id="arrow" viewBox="0 0 20 35">
    <path d="M1.06067 1.06055L17.0607 17.0605L1.06067 33.0605"/>
  </symbol>

  <symbol id="burger" viewBox="0 0 24 18">
    <rect width="24" height="2"/>
    <rect y="8" width="24" height="2"/>
    <rect y="16" width="24" height="2"/>
  </symbol>

  <symbol id="user" viewBox="0 0 26 29">
    <path d="M13 12.9C9.4 12.9 6.5 10 6.5 6.4C6.5 2.8 9.4 0 13 0C16.6 0 19.5 2.9 19.5 6.5C19.5 10.1 16.6 12.9 13 12.9ZM13 2C10.5 2 8.5 4 8.5 6.5C8.5 9 10.5 11 13 11C15.5 11 17.5 9 17.5 6.5C17.5 4 15.5 2 13 2Z"/>
    <path d="M23.2 28.9999H2.79997C1.99997 28.9999 1.29997 28.6999 0.799971 28.0999C0.299971 27.4999 -2.92808e-05 26.6999 0.0999707 25.8999L0.599971 20.6999C0.799971 17.9999 2.89997 16.7999 3.79997 16.2999L3.99997 16.0999C4.69997 15.6999 6.39997 15.0999 8.09997 14.7999C8.89997 14.6999 9.59997 14.7999 10.2 15.1999C11.9 16.3999 14.1 16.3999 15.7 15.1999C16.3 14.7999 17 14.5999 17.8 14.7999C19.6 15.0999 21.2 15.6999 21.9 16.0999L22.2 16.2999C23.2 16.8999 25.2 17.9999 25.4 20.6999L25.9 25.8999C26 26.6999 25.7 27.4999 25.2 28.0999C24.7 28.6999 24 28.9999 23.2 28.9999ZM8.69997 16.6999C8.59997 16.6999 8.59997 16.6999 8.49997 16.6999C6.59997 17.0999 5.29997 17.5999 5.09997 17.6999C4.99997 17.8999 4.89997 17.8999 4.69997 17.9999C3.79997 18.4999 2.59997 19.1999 2.39997 20.8999L1.99997 26.0999C1.99997 26.2999 2.09997 26.5999 2.19997 26.7999C2.39997 26.8999 2.59997 26.9999 2.79997 26.9999H23.2C23.4 26.9999 23.6 26.8999 23.8 26.6999C24 26.4999 24 26.2999 24 25.9999L23.5 20.7999C23.4 19.1999 22.1 18.4999 21.2 17.8999C21.1 17.7999 21 17.7999 20.9 17.6999C20.6 17.4999 19.4 16.9999 17.5 16.6999C17.3 16.6999 17.1 16.6999 17 16.7999C14.7 18.4999 11.4 18.4999 9.09997 16.7999C8.99997 16.7999 8.79997 16.6999 8.69997 16.6999Z"/>
  </symbol>

  <symbol id="favor" viewBox="0 0 32 29">
    <path d="M16 29C15.5 29 15 28.8 14.6 28.5C11.2 25.5 0 15.2 0 8.9C0 4 3.9 0 8.6 0C11.7 0 14.5 1.7 16 4.3C17.5 1.7 20.3 0 23.4 0C28.1 0 32 4 32 8.9C32 15.2 20.8 25.5 17.4 28.5C17 28.8 16.5 29 16 29ZM8.6 2C5 2 2 5.1 2 8.9C2 13.3 9.5 21.4 15.9 27H16C22.5 21.4 30 13.3 30 8.9C30 5.1 27 2 23.4 2C20.7 2 18.3 3.7 17.3 6.3C17.1 6.6 16.8 7 16 7C15.3 7 14.9 6.8 14.7 6.3C13.7 3.7 11.3 2 8.6 2Z"/>
  </symbol>

  <symbol id="cart" viewBox="0 0 35 29">
    <path d="M26.1 19.9H7.90001C5.30001 19.9 3.70001 18.1 3.30001 16.3C3.00001 15.2 0.700012 7.10005 1.19824e-05 4.90005C-0.099988 4.60005 0.100012 4.30005 0.400012 4.30005H30V6.30005H2.50001C3.30001 8.90005 5.00001 14.8 5.20001 15.9C5.40001 16.8 6.30001 17.9 7.90001 17.9H26.1V19.9Z"/>
    <path d="M24.6 24.8L23 23.7C23.2 23.4 23.4 23.1 23.5 22.7C24 21.2 27.5 8.8 29 3.5C29.5 1.4 31.3 0 33.5 0H34.7C34.8 0 35 0.2 35 0.3V1.6C35 1.8 34.8 2 34.7 2H33.5C32.3 2 31.2 2.8 30.9 4C29.4 9.3 25.9 21.8 25.4 23.4C25.2 23.9 24.9 24.4 24.6 24.8Z"/>
    <path d="M20.5 25H8.40002V27H20.5V25Z"/>
    <path d="M6 29C4.3 29 3 27.6 3 26C3 24.3 4.4 23 6 23C7.7 23 9 24.4 9 26C9 27.6 7.7 29 6 29ZM6 24.9C5.4 24.9 5 25.4 5 25.9C5 26.5 5.5 26.9 6 26.9C6.5 26.9 7 26.4 7 25.9C7 25.4 6.6 24.9 6 24.9Z"/>
    <path d="M22.6 29C20.9 29 19.6 27.6 19.6 26C19.6 24.3 21 23 22.6 23C24.3 23 25.6 24.4 25.6 26C25.7 27.6 24.3 29 22.6 29ZM22.6 24.9C22 24.9 21.6 25.4 21.6 25.9C21.6 26.5 22.1 26.9 22.6 26.9C23.1 26.9 23.6 26.4 23.6 25.9C23.7 25.4 23.2 24.9 22.6 24.9Z"/>
  </symbol>

  <symbol id="target" viewBox="0 0 16 16">
    <path d="M8 10C9.10457 10 10 9.10457 10 8C10 6.89543 9.10457 6 8 6C6.89543 6 6 6.89543 6 8C6 9.10457 6.89543 10 8 10Z"/>
    <path fill-rule="evenodd" clip-rule="evenodd" d="M2.08296 7C2.50448 4.48749 4.48749 2.50448 7 2.08296V0H9V2.08296C11.5125 2.50448 13.4955 4.48749 13.917 7H16V9H13.917C13.4955 11.5125 11.5125 13.4955 9 13.917V16H7V13.917C4.48749 13.4955 2.50448 11.5125 2.08296 9H0V7H2.08296ZM4 8C4 5.79086 5.79086 4 8 4C10.2091 4 12 5.79086 12 8C12 10.2091 10.2091 12 8 12C5.79086 12 4 10.2091 4 8Z"/>
  </symbol>

  <symbol id="bathroom" viewBox="0 0 24 24" stroke-linecap="round" stroke-linejoin="round">
    <rect x="3" y="10" width="18" height="6" rx="2"/>
    <path d="M7 10V7a3 3 0 0 1 6 0"/>
    <path d="M3 16l1 3h16l1-3"/>
  </symbol>

  <symbol id="washer" viewBox="0 0 24 24" stroke-linecap="round" stroke-linejoin="round">
    <path d="M4 10h16"/>
    <path d="M6 10a6 4 0 0 0 12 0"/>
    <path d="M12 14v4"/>
  </symbol>

  <symbol id="toilet" viewBox="0 0 24 24" stroke-linecap="round" stroke-linejoin="round">
    <path d="M7 4h10v4H7z"/>
    <path d="M9 8v4a3 3 0 0 0 6 0V8"/>
    <path d="M8 16h8"/>
  </symbol>

  <symbol id="install" viewBox="0 0 24 24" stroke-linecap="round" stroke-linejoin="round">
    <rect x="6" y="3" width="12" height="18" rx="1"/>
    <rect x="9" y="6" width="6" height="4"/>
    <line x1="9" y1="13" x2="15" y2="13"/>
  </symbol>

  <symbol id="mebel" viewBox="0 0 24 24" stroke-linecap="round" stroke-linejoin="round">
    <rect x="4" y="5" width="16" height="14" rx="2"/>
    <line x1="4" y1="10" x2="20" y2="10"/>
    <line x1="9" y1="10" x2="9" y2="19"/>
  </symbol>

  <symbol id="bath" viewBox="0 0 24 24" stroke-linecap="round" stroke-linejoin="round">
    <path d="M3 11h18"/>
    <path d="M5 11v3a4 4 0 0 0 4 4h6a4 4 0 0 0 4-4v-3"/>
    <line x1="7" y1="18" x2="7" y2="20"/>
    <line x1="17" y1="18" x2="17" y2="20"/>
  </symbol>

  <symbol id="bathcabine" viewBox="0 0 24 24" stroke-linecap="round" stroke-linejoin="round">
    <path d="M6 3h12v18H6z"/>
    <line x1="12" y1="3" x2="12" y2="21"/>
    <circle cx="14" cy="12" r="1"/>
  </symbol>

  <symbol id="mixer" viewBox="0 0 24 24" stroke-linecap="round" stroke-linejoin="round">
    <path d="M4 10h10a4 4 0 0 1 4 4v1"/>
    <line x1="12" y1="6" x2="12" y2="10"/>
    <line x1="9" y1="6" x2="15" y2="6"/>
  </symbol>

  <symbol id="trap" viewBox="0 0 24 24" stroke-linecap="round" stroke-linejoin="round">
    <rect x="3" y="10" width="18" height="4" rx="1"/>
    <line x1="6" y1="12" x2="18" y2="12"/>
  </symbol>

  <symbol id="plitka" viewBox="0 0 24 24" stroke-linecap="round" stroke-linejoin="round">
    <rect x="3" y="3" width="8" height="8"/>
    <rect x="13" y="3" width="8" height="8"/>
    <rect x="3" y="13" width="8" height="8"/>
    <rect x="13" y="13" width="8" height="8"/>
  </symbol>

  <symbol id="poddon" viewBox="0 0 24 24" stroke-linecap="round" stroke-linejoin="round">
    <rect x="4" y="4" width="16" height="16" rx="2"/>
    <rect x="7" y="7" width="10" height="10" rx="1"/>
    <circle cx="17" cy="17" r="1.5"/>
  </symbol>

</svg>