<svg width="507" height="140" viewBox="0 0 507 140" fill="none" xmlns="http://www.w3.org/2000/svg">
<g clip-path="url(#clip0)">
<path fill-rule="evenodd" clip-rule="evenodd" d="M66.5 63.3999L60.7001 70.3999L51.8 80.9999L91.8001 102.1L80.1 84.2999L66.5 63.3999Z" fill="#718898"/>
<path fill-rule="evenodd" clip-rule="evenodd" d="M73.3 36.2002L68.7 59.3002L90.1 66.8002L73.3 36.2002Z" fill="#718898"/>
<path fill-rule="evenodd" clip-rule="evenodd" d="M40.8999 42.9002L65.6999 32.2002L66.6999 31.8002L61.9999 30.8002L46.3999 27.7002L40.8999 42.9002Z" fill="#718898"/>
<path fill-rule="evenodd" clip-rule="evenodd" d="M42 46.3001L61.4 55.9001L65.3 57.8001L70.2 34.1001L59.2 38.8001L42 46.3001Z" fill="#718898"/>
<path fill-rule="evenodd" clip-rule="evenodd" d="M29.7001 115.4L36.4001 117L46.1 85.3999L4.80005 109.7L29.7001 115.4Z" fill="#718898"/>
<path fill-rule="evenodd" clip-rule="evenodd" d="M2.80005 86.2001L22.5 83.5001L46.7001 80.1001L42.4001 66.4001L37.1 49.6001L18.3 69.6001L2.80005 86.2001Z" fill="#718898"/>
<path fill-rule="evenodd" clip-rule="evenodd" d="M57.4 87.9001L50.0999 84.1001L47.2 93.7001L40.2 116.8L91.8 106.1L57.4 87.9001Z" fill="#718898"/>
<path fill-rule="evenodd" clip-rule="evenodd" d="M18 46.5002L36.5 44.5002L41.7 30.2002L18 46.5002Z" fill="#718898"/>
<path fill-rule="evenodd" clip-rule="evenodd" d="M49.8 77.9001L63.8 61.0001L40.8 49.6001L44.6 61.7001L49.8 77.9001Z" fill="#718898"/>
<path fill-rule="evenodd" clip-rule="evenodd" d="M1.6 107.4L26.2 92.9L40.5 84.5L17.2 87.8L0 90.2L1.6 107.4Z" fill="#718898"/>
<path fill-rule="evenodd" clip-rule="evenodd" d="M45 139.8L66.9001 134.8L59.6 131.4L40.3 122.3L43.6 134.4L45 139.8Z" fill="#718898"/>
<path fill-rule="evenodd" clip-rule="evenodd" d="M36.4999 121.8L19.8999 132.2L41.1999 139.2L36.4999 121.8Z" fill="#718898"/>
<path fill-rule="evenodd" clip-rule="evenodd" d="M92.1999 109.7L43.2 119.7L71.8 133.2L92.1999 109.7Z" fill="#718898"/>
<path fill-rule="evenodd" clip-rule="evenodd" d="M48.7001 0L47.1001 24.2L68.6001 28.6L48.7001 0Z" fill="#718898"/>
<path fill-rule="evenodd" clip-rule="evenodd" d="M92.2 71.2998L71 63.7998L71.5 64.5998L94.6 99.9998L92.2 71.2998Z" fill="#718898"/>
<path fill-rule="evenodd" clip-rule="evenodd" d="M33.0999 119.8L26.7 118.4L4.19995 113.2L16.3 130.3L33.0999 119.8Z" fill="#718898"/>
<path fill-rule="evenodd" clip-rule="evenodd" d="M22.4 39.2L43.5 24.7L43.6 23.7L45 1.5L17.8 42.3L22.4 39.2Z" fill="#718898"/>
<path fill-rule="evenodd" clip-rule="evenodd" d="M2.30005 81.5999L33.3 48.3999L12.6 50.5999L2.30005 81.5999Z" fill="#718898"/>
<path fill-rule="evenodd" clip-rule="evenodd" d="M122.8 43.2002C123.4 43.2002 124 43.2002 124.6 43.2002C133.1 54.3002 141.9 65.1002 150.5 76.1002C159.1 65.1002 167.8 54.2002 176.4 43.2002C177 43.2002 177.6 43.2002 178.1 43.2002C178.1 63.1002 178.1 83.0002 178.1 103C174.2 103.1 170.3 103 166.4 103C166.4 93.4002 166.4 83.7002 166.4 74.1002C161.2 79.9002 156.5 86.1002 151.5 92.0002C151.1 92.1002 150.2 92.2002 149.7 92.2002C144.6 86.2002 139.6 80.0002 134.4 74.1002C134.3 83.7002 134.4 93.4002 134.4 103C130.5 103 126.6 103 122.7 103C122.8 83.1002 122.8 63.2002 122.8 43.2002Z" fill="#7F7264"/>
<path fill-rule="evenodd" clip-rule="evenodd" d="M260.2 103C268.7 83.0001 277.2 63.1001 285.7 43.1001C286.1 43.1001 286.9 43.1001 287.3 43.1001L287.6 43.3001C295.9 63.2001 304.3 83.0001 312.6 102.9C308.5 102.9 304.4 102.9 300.3 102.9C299.1 99.8001 297.8 96.8001 296.7 93.6001C289.8 93.6001 282.9 93.6001 276 93.6001C274.7 96.7001 273.5 99.8001 272.2 102.9C268.3 103 264.2 103 260.2 103ZM279.6 84.7001C284.1 84.8001 288.6 84.6001 293.1 84.8001C290.8 79.3001 288.7 73.7001 286.4 68.1001C284 73.5001 282 79.2001 279.6 84.7001Z" fill="#7F7264"/>
<path fill-rule="evenodd" clip-rule="evenodd" d="M324.3 50.2C330.3 44.6 338.5 42.5 346.2 43C350.7 43.3 355.2 44.1 359.3 46.2C359.3 50 359.2 53.9 359.3 57.7C354.3 54.8 348.6 53.6 343 54C338.4 54.4 333.9 56.6 330.9 60.5C327 65.6 326.1 72.7 327.2 79.1C328 83.8 330.3 88.4 334.2 90.9C339.2 94.2 345.4 94 350.8 92.2C350.7 85.7 350.9 79.2 350.7 72.7C354.3 72.7 357.9 72.8 361.6 72.7C361.5 82 361.5 91.3 361.6 100.6C355.4 103.3 348.6 104.1 341.9 104C335 103.9 327.8 101.8 322.6 96.6C317.2 91.3 314.6 83.3 314.4 75.5C314.1 66 317.5 56.3 324.3 50.2Z" fill="#7F7264"/>
<path fill-rule="evenodd" clip-rule="evenodd" d="M378.3 51.4C383.9 45.6 391.7 43 399.3 43C404.5 43.1 409.7 43.8 414.4 46.2C414.4 50 414.3 53.9 414.4 57.7C409.6 54.9 404.1 53.7 398.6 54C393.9 54.3 389.1 56.5 386.1 60.5C382.1 65.7 381.2 73 382.4 79.5C383.2 84.1 385.6 88.5 389.3 90.9C394.3 94.2 400.5 94 405.9 92.2C405.8 85.7 405.9 79.2 405.8 72.7C409.4 72.7 413 72.8 416.7 72.7C416.6 82 416.6 91.3 416.7 100.6C410.5 103.3 403.7 104.1 397 104C390.2 103.9 383.1 101.9 377.9 96.8C372.5 91.7 369.8 83.7 369.5 76C369.2 67 372.2 57.6 378.3 51.4Z" fill="#7F7264"/>
<path fill-rule="evenodd" clip-rule="evenodd" d="M472.5 43.7001C479.4 42.5001 486.7 43.4001 492.8 47.2001C499.5 51.2001 504.5 58.5001 506.1 66.7001C507.9 75.5001 506.2 85.3001 501.1 92.4001C496.5 98.9001 489.3 102.9 481.9 103.8C473.8 104.8 465 102.9 458.6 97.0001C448.4 87.9001 446.3 70.5001 452.9 58.3001C456.9 50.5001 464.4 45.1001 472.5 43.7001ZM473.5 54.7001C468.3 56.2001 464 60.7001 462.3 66.3001C460 73.7001 461.2 82.7001 466.3 88.3001C471.1 93.6001 478.9 94.7001 485 91.7001C489.2 89.7001 492.3 85.5001 493.6 80.8001C495.9 73.4001 494.6 64.4001 489.4 58.8001C485.3 54.5001 479 53.2001 473.5 54.7001Z" fill="#7F7264"/>
<path fill-rule="evenodd" clip-rule="evenodd" d="M189.7 44.2001C193.7 44.2001 197.8 44.3001 201.8 44.1001C201.8 63.7001 201.8 83.3001 201.8 103C197.8 103 193.7 103 189.7 103C189.7 83.4001 189.7 63.8001 189.7 44.2001Z" fill="#7F7264"/>
<path fill-rule="evenodd" clip-rule="evenodd" d="M213.3 44.2998C220.6 44.2998 227.9 44.2998 235.2 44.2998C241.1 44.2998 247.3 46.5998 251.2 51.5998C256 57.6998 256.2 67.2998 252.1 73.9998C250.2 77.1998 247.4 79.6998 244.3 81.3998C249 88.5998 253.7 95.7998 258.4 103C253.8 103 249.2 103 244.5 103C240 95.3998 235.5 87.6998 231 80.0998C230.5 79.3998 230.4 78.5998 230.3 77.7998C234 77.2998 237.8 75.8998 240.3 72.7998C243.6 68.9998 243.9 62.5998 241.1 58.3998C239.4 55.8998 236.5 54.4998 233.6 54.3998C230.9 54.2998 228.1 54.3998 225.4 54.2998C225.4 70.4998 225.4 86.6998 225.4 103C221.4 103 217.3 103 213.3 103C213.3 83.4998 213.3 63.8998 213.3 44.2998Z" fill="#7F7264"/>
<path fill-rule="evenodd" clip-rule="evenodd" d="M427.2 44.2001C431.3 44.2001 435.3 44.3001 439.4 44.1001C439.4 63.7001 439.4 83.3001 439.4 103C435.4 103 431.3 103 427.3 103C427.2 83.4001 427.1 63.8001 427.2 44.2001Z" fill="#7F7264"/>
</g>
<defs>
<clipPath id="clip0">
<rect width="506.7" height="139.8" fill="white"/>
</clipPath>
</defs>
</svg>
