<svg width="64" height="64" viewBox="0 0 64 64" fill="none" xmlns="http://www.w3.org/2000/svg">
<g clip-path="url(#clip0_0_115)">
<path fill-rule="evenodd" clip-rule="evenodd" d="M62.1076 32.1894C62.1076 48.8521 48.4745 62.4853 31.8117 62.4853C15.149 62.4853 1.51587 48.8521 1.51587 32.1894C1.51587 15.5267 15.149 1.89355 31.8117 1.89355C48.8532 1.89355 62.1076 15.5267 62.1076 32.1894Z" stroke="#3BB9B8" stroke-width="2" stroke-miterlimit="22.9256"/>
<path d="M37.144 30.8988L33.216 34.0931H44.752V37.6253H29.792C28.792 38.3816 28.2 39.3069 28.2 40.4816C28.2 42.5011 29.792 43.5954 32.632 43.5954C35.056 43.5954 37.144 42.4207 38.816 39.9828L43.416 43.0965C40.912 46.9667 36.392 48.8977 32.128 48.8977C26.528 48.8977 22.352 46.2103 22.352 41.7529C22.352 40.3207 22.856 38.808 23.856 37.6333H19.256V34.1011H26.608L30.624 30.9069H19.256V27.3747H34.136C35.224 26.369 35.728 25.4437 35.728 24.3494C35.728 22.5874 34.136 21.3241 31.712 21.3241C29.368 21.3241 27.368 22.6678 25.944 24.9368L21.512 21.9034C23.936 18.0333 27.864 16.1023 32.128 16.1023C37.896 16.1023 41.656 19.1276 41.656 23.2471C41.656 24.7598 41.152 26.2724 40.32 27.3667H44.752V30.8988H37.144Z" fill="#3BB9B8"/>
</g>
<defs>
<clipPath id="clip0_0_115">
<rect width="64" height="64" fill="white"/>
</clipPath>
</defs>
</svg>
