<!DOCTYPE svg PUBLIC "-//W3C//DTD SVG 1.1//EN" "http://www.w3.org/Graphics/SVG/1.1/DTD/svg11.dtd">
<!-- Uploaded to: SVG Repo, www.svgrepo.com, Transformed by: SVG Repo Mixer Tools -->
<svg fill="#04ff00" xmlns="http://www.w3.org/2000/svg" width="800px" height="800px" viewBox="0 0 52 52" enable-background="new 0 0 52 52" xml:space="preserve" stroke="#04ff00">
<g id="SVGRepo_bgCarrier" stroke-width="0"/>
<g id="SVGRepo_tracerCarrier" stroke-linecap="round" stroke-linejoin="round"/>
<g id="SVGRepo_iconCarrier"> <path d="M26,2C12.7,2,2,12.7,2,26s10.7,24,24,24s24-10.7,24-24S39.3,2,26,2z M39.4,20L24.1,35.5 c-0.6,0.6-1.6,0.6-2.2,0L13.5,27c-0.6-0.6-0.6-1.6,0-2.2l2.2-2.2c0.6-0.6,1.6-0.6,2.2,0l4.4,4.5c0.4,0.4,1.1,0.4,1.5,0L35,15.5 c0.6-0.6,1.6-0.6,2.2,0l2.2,2.2C40.1,18.3,40.1,19.3,39.4,20z"/> </g>
</svg>